<?xml version="1.0" encoding="utf-8"?>
<!-- Generator: Adobe Illustrator 25.4.1, SVG Export Plug-In . SVG Version: 6.00 Build 0)  -->
<svg version="1.1" id="圖層_1" xmlns="http://www.w3.org/2000/svg" xmlns:xlink="http://www.w3.org/1999/xlink" x="0px" y="0px"
	 viewBox="0 0 3061.4 3061.4" style="enable-background:new 0 0 3061.4 3061.4;" xml:space="preserve">
<style type="text/css">
	.st0{fill:#FFFFFF;}
</style>
<g>
	<g>
		<rect x="1414.1" y="234" class="st0" width="233.3" height="712.7"/>
		<rect x="947.4" y="713.4" class="st0" width="233.3" height="233.3"/>
		<rect x="1180.7" y="946.7" class="st0" width="233.3" height="233.3"/>
		<rect x="714.1" y="946.7" class="st0" width="233.3" height="233.3"/>
		<rect x="947.4" y="1180" class="st0" width="233.3" height="233.3"/>
		<rect x="1880.7" y="713.4" class="st0" width="233.3" height="233.3"/>
		<rect x="2114" y="946.7" class="st0" width="233.3" height="233.3"/>
		<rect x="1647.4" y="946.7" class="st0" width="233.3" height="233.3"/>
		<rect x="1880.7" y="1180" class="st0" width="233.3" height="233.3"/>
	</g>
	<rect x="234.7" y="1413.3" class="st0" width="712.7" height="233.3"/>
	<rect x="1414" y="2113.2" class="st0" width="233.3" height="712.7"/>
	<rect x="714.1" y="1879.9" class="st0" width="233.3" height="233.3"/>
	<rect x="947.4" y="2113.2" class="st0" width="233.3" height="233.3"/>
	<rect x="1880.7" y="2113.2" class="st0" width="233.3" height="233.3"/>
	<rect x="1180.7" y="1879.9" class="st0" width="233.3" height="233.3"/>
	<rect x="1647.4" y="1879.9" class="st0" width="233.3" height="233.3"/>
	<rect x="2114" y="1879.9" class="st0" width="233.3" height="233.3"/>
	<rect x="947.4" y="1646.6" class="st0" width="233.3" height="233.3"/>
	<rect x="1880.7" y="1646.6" class="st0" width="233.3" height="233.3"/>
	<rect x="2114" y="1413.3" class="st0" width="712.7" height="233.3"/>
</g>
</svg>
