<?xml version="1.0" encoding="utf-8"?>
<!-- Generator: Adobe Illustrator 25.4.1, SVG Export Plug-In . SVG Version: 6.00 Build 0)  -->
<svg version="1.1" id="圖層_1" xmlns="http://www.w3.org/2000/svg" xmlns:xlink="http://www.w3.org/1999/xlink" x="0px" y="0px"
	 viewBox="0 0 3061.4 3061.4" style="enable-background:new 0 0 3061.4 3061.4;" xml:space="preserve">
<style type="text/css">
	.st0{fill:#FFFFFF;}
</style>
<g>
	<rect x="-896.2" y="-1261.7" class="st0" width="360.5" height="360.5"/>
	<rect x="-535.7" y="-901.2" class="st0" width="360.5" height="360.5"/>
	<polygon class="st0" points="535,-540.7 535,-180.2 895.5,-180.2 895.5,-540.7 544.9,-540.7 544.9,-901.2 184.5,-901.2 
		184.5,-540.7 	"/>
	<rect x="-175.3" y="-2001.8" class="st0" width="360.5" height="1101.3"/>
	<rect x="-896.2" y="900.4" class="st0" width="360.5" height="360.5"/>
	<rect x="-535.7" y="540" class="st0" width="360.5" height="360.5"/>
	<rect x="-175.3" y="900.4" class="st0" width="360.5" height="1101.3"/>
	<rect x="-1256.7" y="540" class="st0" width="360.5" height="360.5"/>
	<rect x="-896.2" y="179.5" class="st0" width="360.5" height="360.5"/>
	<rect x="-1256.7" y="-901.2" class="st0" width="360.5" height="360.5"/>
	<rect x="-896.2" y="-540.7" class="st0" width="360.5" height="360.5"/>
	<rect x="-1996.8" y="-180.2" class="st0" width="1101.3" height="360.5"/>
	<polygon class="st0" points="895.5,-540.7 1255.2,-540.7 1255.2,-901.2 905.4,-901.2 905.4,-1261.7 544.9,-1261.7 544.9,-901.2 
		895.5,-901.2 	"/>
	<polygon class="st0" points="895.5,900.4 544.9,900.4 544.9,1260.2 905.4,1260.2 905.4,900.4 1255.2,900.4 1255.2,540 895.5,540 	
		"/>
	<polygon class="st0" points="895.5,540 895.5,179.5 535,179.5 535,540 184.5,540 184.5,900.4 544.9,900.4 544.9,540 	"/>
	<rect x="895.5" y="-180.2" class="st0" width="1101.3" height="360.5"/>
</g>
</svg>
