<?xml version="1.0" encoding="utf-8"?>
<!-- Generator: Adobe Illustrator 23.0.3, SVG Export Plug-In . SVG Version: 6.00 Build 0)  -->
<svg version="1.1" id="圖層_1" xmlns="http://www.w3.org/2000/svg" xmlns:xlink="http://www.w3.org/1999/xlink" x="0px" y="0px"
	 viewBox="0 0 5442.5 3061.4" style="enable-background:new 0 0 5442.5 3061.4;" xml:space="preserve">
<style type="text/css">
	.st0{clip-path:url(#SVGID_2_);}
	.st1{fill:#2CFF00;}
</style>
<path d="M3267.5,1597.2c4.7-1.2,10.1-2.7,16.3-4.4s12.7-3.5,19.6-5.5c7-2,14-4,21-6l0.6,4.2l-30.1,8.6l-26.1,7.4L3267.5,1597.2z
	 M3269.1,1519.2h53.7v4.2h-53.7V1519.2z M3292.9,1520.8h4.2v71.4h-4.2V1520.8z M3381.2,1529.4l4.5,0.9c-2.2,12.3-5.4,24.4-9.8,36.1
	c-3.7,9.9-8.8,19.3-15.1,27.8c-6.1,8.1-13.4,15.2-21.7,20.9c-9.3,6.4-19.3,11.5-29.8,15.4c-0.1-0.5-0.4-0.9-0.6-1.3
	c-0.3-0.5-0.7-1-1.1-1.4s-0.7-0.9-1-1.2c15.1-5.3,27.6-12.2,37.5-20.7c10-8.7,18.1-19.5,23.7-31.6
	C3373.6,1561.8,3378.1,1546.8,3381.2,1529.4L3381.2,1529.4z M3341.7,1500.1l4.2,0.9c-2.3,8.5-5,16.7-8,24.7
	c-2.9,7.6-6.2,15.1-10,22.3c-3.4,6.4-7.3,12.6-11.9,18.3c-0.3-0.3-0.6-0.5-1-0.7c-0.5-0.3-1-0.6-1.5-0.9l-1.4-0.7
	c4.7-5.6,8.7-11.6,12.1-18c3.8-7.1,7.1-14.4,9.9-21.9C3337.1,1516.2,3339.6,1508.2,3341.7,1500.1L3341.7,1500.1z M3334.9,1533.2
	c2.9,14.1,7.4,27.8,13.2,41c5.2,11.8,12.4,22.7,21.2,32.2c8.5,9,18.9,15.9,30.4,20.3c-0.4,0.3-0.8,0.7-1.2,1.1
	c-0.4,0.4-0.8,0.8-1.1,1.2c-0.4,0.4-0.7,0.7-1,1.2c-11.6-4.8-22-12-30.5-21.2c-8.9-9.7-16.1-20.9-21.4-32.9
	c-5.9-13.5-10.5-27.6-13.6-42L3334.9,1533.2z M3333.9,1528.1h65.1v4.2h-65.1V1528.1z"/>
<path d="M3557.6,1603.8h130.7v4.3h-130.7V1603.8z M3558.9,1549.6h63.9v4.2h-63.9V1549.6z M3560.3,1507.9h61.3v4.2h-61.3V1507.9z
	 M3672,1569.7l5,3.3c-6.5,1.2-14.1,2.2-22.9,3s-18.2,1.5-28.2,2c-10,0.5-20.1,0.8-30.4,0.9c-10.3,0.1-20.1,0.1-29.5,0
	c0-0.7-0.2-1.4-0.4-2c-0.2-0.8-0.4-1.4-0.6-2c9.2,0.1,18.8,0.1,28.9-0.1c10.1-0.1,20.1-0.4,29.9-0.8c9.8-0.4,18.9-0.9,27.3-1.7
	C3659.4,1571.6,3666.4,1570.7,3672,1569.7z M3565.8,1518.1h50.3v25.9h-50.3V1518.1z M3566.7,1555.6h4.2v9.1h40.9v-9.1h4.2v13.3
	h-49.3L3566.7,1555.6z M3569.4,1588.6h105.9v4.4h-105.9L3569.4,1588.6z M3570,1522.5v6.4h41.9v-6.4H3570z M3570,1533v6.6h41.9v-6.7
	L3570,1533z M3588.5,1499.9h4.2v66.9h-4.2V1499.9z M3620.6,1575.2h4.3v48.5c0.1,1.4-0.2,2.8-0.9,4c-0.9,1-2,1.6-3.3,1.8
	c-2.5,0.5-5.1,0.7-7.7,0.7c-3.6,0.1-8.5,0.1-14.7,0c-0.1-0.6-0.3-1.2-0.6-1.7c-0.3-0.7-0.6-1.4-1-2c3.5,0.1,6.6,0.2,9.5,0.2
	s5.3,0,7.3-0.1s3.4-0.1,4.2-0.1c0.8,0,1.6-0.3,2.2-0.7c0.5-0.5,0.7-1.3,0.6-2L3620.6,1575.2z M3670.4,1535.8h1l1-0.3l2.6,1.4
	c-2.9,6.5-7.4,12.2-12.9,16.6c-5.8,4.6-12.2,8.4-19.1,11.1c-7,2.9-14.2,5.1-21.6,6.6c-0.3-0.6-0.6-1.3-1.1-2
	c-0.3-0.7-0.8-1.3-1.4-1.7c7.1-1.3,14.1-3.2,20.9-5.8c6.6-2.5,12.9-5.9,18.5-10.1c5.2-3.9,9.4-9,12.1-14.9L3670.4,1535.8z
	 M3634.1,1505h4.3v8.5c0,2.4-0.5,4.8-1.4,7.1c-1.1,2.7-2.8,5-5,6.9c-3.1,2.6-6.6,4.7-10.4,6.2c-0.2-0.4-0.5-0.8-0.8-1.2
	c-0.3-0.4-0.6-0.8-0.9-1.2c-0.2-0.3-0.5-0.6-0.9-0.9c3.4-1.2,6.6-3,9.5-5.3c1.9-1.6,3.4-3.6,4.4-5.8c0.7-1.9,1.1-3.9,1.2-5.9
	L3634.1,1505z M3629.3,1535.8h42.2v4.2h-42.2V1535.8z M3635.7,1540c3.1,5.1,7.2,9.6,12.1,13c5.6,4,11.7,7.1,18.2,9.3
	c7.2,2.5,14.7,4.3,22.3,5.3c-0.5,0.6-1.1,1.2-1.5,1.8c-0.5,0.6-0.9,1.3-1.2,2c-7.6-1.3-15.1-3.3-22.4-6.1
	c-6.6-2.5-12.9-5.9-18.6-10.1c-5.1-3.7-9.3-8.4-12.5-13.9L3635.7,1540z M3636.6,1505h28.7v4.2h-28.7V1505z M3662.9,1505h4.6v17.8
	c-0.1,1.1,0.1,2.2,0.4,3.3c0.2,0.5,0.8,0.8,1.8,0.8h11.3c0.8,0,1.7,0,2.8-0.1s2.1-0.1,2.8-0.2c0.1,0.6,0.2,1.3,0.3,2.1
	s0.2,1.5,0.3,2c-0.9,0.2-1.8,0.4-2.8,0.4c-1.1,0-2.3,0.1-3.3,0.1h-11.7c-1.4,0.1-2.8-0.2-4.1-0.7c-1-0.5-1.7-1.5-1.9-2.6
	c-0.4-1.7-0.5-3.4-0.5-5.1L3662.9,1505z"/>
<path d="M3846.6,1553.1h55.5v4.3h-55.5V1553.1z M3849.5,1507.9h47.8v4.2h-47.8V1507.9z M3872.8,1554.3h4.2v68.9
	c0.1,1.4-0.2,2.8-0.9,4c-0.7,1-1.8,1.6-3,1.9c-2.2,0.5-4.4,0.7-6.6,0.7c-2.9,0-7,0.1-12.1,0.1c-0.2-0.6-0.4-1.3-0.6-1.9
	c-0.3-0.8-0.7-1.5-1.1-2.2c4.3,0.1,8.1,0.2,11.2,0.2c3.1,0,5.2-0.1,6.1-0.2c0.8,0,1.5-0.2,2.2-0.7c0.5-0.5,0.7-1.2,0.6-1.9
	L3872.8,1554.3z M3855.1,1527.1l2.9-2.9c4.3,2.4,8.5,5.1,12.5,7.9c4.2,3,8.1,6,11.7,9c3.1,2.6,6.1,5.4,8.7,8.4l-3,3.2
	c-2.7-3.1-5.6-5.9-8.7-8.5c-3.6-3.1-7.5-6.1-11.7-9.2C3863.5,1532.2,3859.4,1529.5,3855.1,1527.1L3855.1,1527.1z M3895.9,1507.9h1
	l1-0.3l3.2,1.9c-2.4,3.8-5,7.4-7.8,10.8c-3,3.7-6.1,7.1-9.3,10.3c-2.9,3-6,5.8-9.2,8.4c-0.4-0.5-0.9-1-1.4-1.4l-1.6-1.2
	c3.1-2.5,6.1-5.3,8.9-8.2c3-3.1,5.9-6.4,8.6-9.8c2.4-3,4.7-6.2,6.6-9.5L3895.9,1507.9z M3901.1,1553.1h0.9l0.9-0.3l2.9,1.3
	c-2.2,5.1-4.5,10.3-7,15.7c-2.1,4.6-4.4,9.1-7,13.4l-3.8-1.4c1.4-2.3,2.9-5,4.5-8.1s3.1-6.3,4.6-9.7c1.5-3.4,2.9-6.6,4.1-9.7
	L3901.1,1553.1z M3924.8,1609.2l4.8,2c-2.9,2.7-6,5.2-9.4,7.4c-3.7,2.5-7.6,4.8-11.6,6.8c-3.9,2-7.9,3.8-12.1,5.3
	c-0.4-0.6-0.9-1.2-1.4-1.7l-1.6-1.6c4.1-1.5,8.1-3.2,12-5.1c3.9-1.9,7.6-4,11.2-6.3C3919.6,1614,3922.3,1611.7,3924.8,1609.2z
	 M3903.8,1507.9h72.8v4.2h-72.8V1507.9z M3910,1530h61.1v74.1H3910V1530z M3914.3,1534.2v18.8h52.4v-18.8L3914.3,1534.2z
	 M3914.3,1557.3v19.1h52.4v-19.1H3914.3z M3914.3,1580.6v19.3h52.4v-19.3H3914.3z M3937.7,1509.1l4.8,0.9c-1,3.8-2,7.8-3.1,11.9
	c-1.1,4.1-2.2,7.7-3.3,10.8l-4.2-1c0.7-2,1.4-4.4,2.2-7.1c0.8-2.7,1.5-5.4,2.1-8.2C3936.9,1513.6,3937.4,1511.1,3937.7,1509.1
	L3937.7,1509.1z M3948.6,1612.1l3.5-2.5c3.2,1.6,6.5,3.5,9.9,5.7c3.4,2.2,6.6,4.3,9.6,6.5c2.6,1.9,5.1,3.9,7.5,6l-3.8,2.8
	c-2.3-2.2-4.7-4.2-7.2-6c-3-2.2-6.2-4.4-9.6-6.6S3951.8,1613.8,3948.6,1612.1L3948.6,1612.1z"/>
<path d="M4135.4,1544l2.5-3.2c3.2,1.2,6.3,2.6,9.3,4.2c3.1,1.6,6,3.3,8.7,5c2.3,1.5,4.6,3.1,6.6,4.9l-2.3,3.6
	c-2.2-1.8-4.5-3.5-6.9-5c-2.7-1.8-5.7-3.5-8.8-5.2C4141.4,1546.7,4138.4,1545.2,4135.4,1544z M4138.9,1625.3
	c2.1-3.7,4.4-8.1,6.9-13.3c2.5-5.2,5-10.6,7.5-16.3c2.5-5.7,4.8-11.1,6.8-16.2l3.3,2.5c-1.9,4.9-4.1,10.1-6.4,15.7
	c-2.4,5.5-4.8,10.9-7.3,16.2c-2.5,5.3-4.9,10-7.1,14.2L4138.9,1625.3z M4142.3,1504.7l2.8-2.9c2.9,1.4,5.8,3,8.5,4.8
	c2.9,1.8,5.6,3.7,8.2,5.6c2.2,1.6,4.3,3.4,6.3,5.3l-2.8,3.6c-1.9-2-3.9-3.9-6.1-5.6c-2.5-2-5.3-4-8.2-5.8
	C4148.1,1507.9,4145.3,1506.2,4142.3,1504.7z M4182.5,1599.5l4.3,1.2c-2.7,5.8-6,11.3-9.9,16.4c-3.6,4.9-7.8,9.5-12.4,13.5
	c-0.3-0.4-0.6-0.7-1-1c-0.5-0.4-0.9-0.8-1.4-1.2c-0.4-0.3-0.8-0.6-1.2-0.9c4.5-3.8,8.5-8.1,12.1-12.7
	C4176.8,1610.1,4180,1604.9,4182.5,1599.5z M4174.4,1507.2h40.3v87.7h-40.3V1507.2z M4178.6,1511.3v23.4h31.9v-23.4H4178.6z
	 M4178.6,1538.9v23.7h31.9v-23.7H4178.6z M4178.6,1566.8v23.8h31.9v-23.8H4178.6z M4201.1,1601.6l3.3-1.9c2.2,2.3,4.5,4.8,6.8,7.6
	c2.3,2.7,4.5,5.4,6.4,8c1.7,2.2,3.3,4.5,4.7,6.9l-3.5,2.5c-1.4-2.4-3-4.8-4.7-7.1c-2-2.7-4.1-5.4-6.4-8.3
	C4205.6,1606.5,4203.4,1603.9,4201.1,1601.6L4201.1,1601.6z M4229.3,1515.1h4.2v81.5h-4.2V1515.1z M4255.7,1500.1h4.3v122.4
	c0,2.3-0.4,3.9-1.2,4.9c-1,1-2.3,1.7-3.7,2c-2.4,0.5-4.8,0.7-7.3,0.7c-3.3,0.1-8.1,0.1-14.2,0.1c-0.2-0.5-0.4-1.1-0.7-2
	c-0.3-0.8-0.6-1.5-1-2.2c4.9,0.1,9.2,0.1,13,0.1s6.2,0,7.4-0.1c1,0,1.9-0.3,2.7-0.9c0.6-0.7,0.9-1.7,0.8-2.6L4255.7,1500.1z"/>
<g>
	<defs>
		<rect id="SVGID_1_" y="0" width="5442.5" height="3062.3"/>
	</defs>
	<clipPath id="SVGID_2_">
		<use xlink:href="#SVGID_1_"  style="overflow:visible;"/>
	</clipPath>
	<g class="st0">
		<rect x="4864.1" y="1248.3" class="st1" width="1248.3" height="565.7"/>
		<rect x="4298.4" y="-0.4" class="st1" width="565.7" height="1248.3"/>
		<rect x="4298.4" y="1813.5" class="st1" width="565.7" height="1248.3"/>
		<rect x="1944.5" y="1251.9" class="st1" width="2353.9" height="565.7"/>
		<rect x="-2046.7" y="1251.9" class="st1" width="2099.7" height="565.7"/>
	</g>
</g>
</svg>
