<svg id="圖層_1" data-name="圖層 1" xmlns="http://www.w3.org/2000/svg" xmlns:xlink="http://www.w3.org/1999/xlink" viewBox="0 0 5442.52 3061.42"><defs><style>.cls-1{fill:none;}.cls-2{clip-path:url(#clip-path);}.cls-3{fill:#2cff00;}</style><clipPath id="clip-path"><rect class="cls-1" width="5442.52" height="3062.26"/></clipPath></defs><path d="M3267.47,1597.16q7.08-1.87,16.26-4.41t19.64-5.49q10.47-3,21-6l.58,4.19-30.12,8.59-26.08,7.44Zm1.59-78h53.74v4.19h-53.74Zm23.84,1.59h4.19v71.36h-4.19Zm88.26,8.67,4.48.86a203.47,203.47,0,0,1-9.82,36.12,115.35,115.35,0,0,1-15.1,27.81,95.21,95.21,0,0,1-21.67,20.94,134.07,134.07,0,0,1-29.83,15.39,3.84,3.84,0,0,0-.65-1.3c-.34-.48-.7-1-1.08-1.45s-.72-.86-1-1.15q22.68-8,37.49-20.66a93.61,93.61,0,0,0,23.69-31.56Q3376.54,1555.55,3381.16,1529.41Zm-39.43-29.33,4.18.87q-3.47,12.71-8,24.7a194.9,194.9,0,0,1-10,22.32,116.57,116.57,0,0,1-11.85,18.27,5.73,5.73,0,0,0-1-.72c-.48-.29-1-.58-1.52-.86l-1.37-.73a102.87,102.87,0,0,0,12.14-18,181.08,181.08,0,0,0,9.89-21.89A234.62,234.62,0,0,0,3341.73,1500.08Zm-6.79,33.08a201.63,201.63,0,0,0,13.21,41,115.74,115.74,0,0,0,21.24,32.21,81.77,81.77,0,0,0,30.41,20.3,8.17,8.17,0,0,0-1.16,1.08c-.38.43-.77.84-1.15,1.23a8.82,8.82,0,0,0-1,1.16,86.84,86.84,0,0,1-30.49-21.24,120.14,120.14,0,0,1-21.38-32.94A217.91,217.91,0,0,1,3331,1534Zm-1-5.05h65.15v4.19h-65.15Z"/><path d="M3557.55,1603.8h130.73v4.34H3557.55Zm1.3-54.17h63.85v4.19h-63.85Zm1.44-41.75h61.25v4.19h-61.25ZM3672,1569.71,3677,1573q-9.68,1.74-22.89,3t-28.24,2q-15,.72-30.41.86t-29.54,0a7,7,0,0,0-.37-2c-.24-.77-.45-1.44-.65-2q13.73.13,28.9-.08t29.9-.79q14.73-.57,27.3-1.66T3672,1569.71Zm-106.18-51.57h50.27V1544h-50.27Zm.87,37.41h4.19v9.11h40.88v-9.11h4.19v13.29h-49.26Zm2.74,33.09h105.89V1593H3569.39Zm.58-66.17v6.36h41.89v-6.36Zm0,10.55v6.64h41.89V1533Zm18.49-33.08h4.19v66.88h-4.19Zm32.07,75.26h4.33v48.54a7,7,0,0,1-.86,4,5.48,5.48,0,0,1-3.32,1.81,40.79,40.79,0,0,1-7.66.72q-5.36.13-14.74,0a8.41,8.41,0,0,0-.57-1.73,19.27,19.27,0,0,0-1-2c3.47.1,6.62.15,9.47.15s5.27,0,7.29-.07,3.42-.08,4.19-.08a3.92,3.92,0,0,0,2.24-.72,2.62,2.62,0,0,0,.65-2Zm49.84-39.44h1l1-.29,2.6,1.45a44.77,44.77,0,0,1-12.93,16.61,76.07,76.07,0,0,1-19.07,11.13,125.83,125.83,0,0,1-21.59,6.64c-.29-.58-.65-1.25-1.09-2a6,6,0,0,0-1.37-1.74,117.11,117.11,0,0,0,20.88-5.77,72.74,72.74,0,0,0,18.49-10.12,38.35,38.35,0,0,0,12.06-14.88ZM3634.11,1505h4.33v8.53a20,20,0,0,1-1.37,7.08,18.75,18.75,0,0,1-5,6.93,36.39,36.39,0,0,1-10.4,6.21,8.46,8.46,0,0,0-.8-1.23c-.34-.43-.65-.84-.94-1.22a3.73,3.73,0,0,0-.86-.87,33.51,33.51,0,0,0,9.46-5.27,15,15,0,0,0,4.4-5.85,16.65,16.65,0,0,0,1.16-5.93Zm-4.77,30.77h42.18V1540h-42.18Zm6.36,4.19a42.91,42.91,0,0,0,12.13,13,71.59,71.59,0,0,0,18.2,9.32,109.64,109.64,0,0,0,22.25,5.27,15.84,15.84,0,0,0-1.51,1.81,12.89,12.89,0,0,0-1.23,2,117.26,117.26,0,0,1-22.39-6.07,74.73,74.73,0,0,1-18.57-10.11,46.34,46.34,0,0,1-12.49-13.87Zm.87-35h28.74v4.19h-28.74Zm26.29,0h4.62v17.77a9.35,9.35,0,0,0,.36,3.25c.24.53.84.8,1.81.8h11.26c.77,0,1.71,0,2.82-.08s2.05-.11,2.82-.21c.09.58.19,1.28.29,2.09s.19,1.47.29,2a11.47,11.47,0,0,1-2.75.36c-1.15,0-2.26.08-3.32.08h-11.7a9.08,9.08,0,0,1-4.05-.73,3.82,3.82,0,0,1-1.95-2.6,20,20,0,0,1-.5-5.05Z"/><path d="M3846.61,1553.1h55.47v4.33h-55.47Zm2.89-45.22h47.81v4.19H3849.5Zm23.26,46.37h4.18v68.91a7.44,7.44,0,0,1-.86,4,5,5,0,0,1-3,1.87,29.17,29.17,0,0,1-6.57.65q-4.41.07-12.06.08a9.61,9.61,0,0,0-.65-1.88c-.34-.77-.7-1.5-1.08-2.17q6.5.15,11.19.15t6.14-.15a4,4,0,0,0,2.17-.65,2.58,2.58,0,0,0,.58-1.95Zm-17.63-27.15,2.89-2.89a135.73,135.73,0,0,1,12.5,7.94q6.29,4.49,11.7,9a74.62,74.62,0,0,1,8.74,8.45l-3,3.18a77.12,77.12,0,0,0-8.74-8.52q-5.41-4.62-11.7-9.18A136.83,136.83,0,0,0,3855.13,1527.1Zm40.74-19.22h1l1-.29,3.18,1.88a105.36,105.36,0,0,1-7.8,10.84q-4.48,5.49-9.25,10.33a111.21,111.21,0,0,1-9.24,8.45,8,8,0,0,0-1.45-1.38l-1.59-1.22a98.12,98.12,0,0,0,8.89-8.17q4.54-4.68,8.59-9.75a78.51,78.51,0,0,0,6.65-9.53Zm5.2,45.22h.87l.86-.29,2.89,1.3q-3.32,7.67-7,15.67a123.09,123.09,0,0,1-7,13.37l-3.76-1.45q2.17-3.46,4.48-8.09t4.55-9.68q2.24-5.06,4.12-9.68Zm23.69,56.05,4.77,2a68.55,68.55,0,0,1-9.39,7.44,109.29,109.29,0,0,1-11.63,6.79,112.54,112.54,0,0,1-12.06,5.27,9.9,9.9,0,0,0-1.45-1.73l-1.59-1.59a125.51,125.51,0,0,0,12-5.13,98.19,98.19,0,0,0,11.2-6.35A44,44,0,0,0,3924.76,1609.15Zm-21-101.27h72.81v4.19h-72.81ZM3910,1530h61.1v74.11H3910Zm4.33,4.19V1553h52.44v-18.78Zm0,23.12v19.07h52.44v-19.07Zm0,23.26v19.35h52.44v-19.35Zm23.4-71.51,4.77.87q-1.46,5.77-3.11,11.91c-1.11,4.1-2.19,7.68-3.25,10.77l-4.19-1q1-3,2.17-7.07t2.09-8.17Q3937.19,1512.22,3937.76,1509Zm10.84,103,3.46-2.46q4.77,2.46,9.9,5.71t9.6,6.5a92.29,92.29,0,0,1,7.52,6l-3.76,2.75a61.65,61.65,0,0,0-7.22-6c-3-2.16-6.19-4.36-9.61-6.57S3951.77,1613.77,3948.6,1612Z"/><path d="M4135.38,1544l2.46-3.18a81.55,81.55,0,0,1,9.31,4.19q4.69,2.46,8.74,5a55.32,55.32,0,0,1,6.65,4.92l-2.31,3.61a70.64,70.64,0,0,0-6.87-5q-4.11-2.67-8.81-5.2T4135.38,1544Zm3.47,81.33q3.16-5.49,6.93-13.29t7.51-16.33q3.77-8.52,6.79-16.18l3.32,2.46q-2.88,7.37-6.42,15.67t-7.3,16.18q-3.75,7.88-7.08,14.23Zm3.46-120.63,2.75-2.88a85.76,85.76,0,0,1,8.52,4.76q4.34,2.75,8.16,5.64a61.36,61.36,0,0,1,6.29,5.34l-2.75,3.61a46.2,46.2,0,0,0-6.14-5.56q-3.82-3-8.23-5.85A99.33,99.33,0,0,0,4142.31,1504.7Zm40.16,94.77,4.34,1.16a92.63,92.63,0,0,1-9.9,16.39,84.85,84.85,0,0,1-12.35,13.51,4.74,4.74,0,0,0-1-1c-.48-.39-.94-.77-1.37-1.16a6.26,6.26,0,0,0-1.23-.87,84.89,84.89,0,0,0,12.13-12.71A75.36,75.36,0,0,0,4182.47,1599.47Zm-8.09-92.31h40.31v87.69h-40.31Zm4.19,4.19v23.4h31.93v-23.4Zm0,27.59v23.69h31.93v-23.69Zm0,27.88v23.84h31.93v-23.84Zm22.54,34.82,3.32-1.88q3.32,3.46,6.79,7.58t6.43,8a65.53,65.53,0,0,1,4.69,6.93l-3.46,2.46a80,80,0,0,0-4.7-7.08q-3-4-6.35-8.31T4201.11,1601.64Zm28.17-86.53h4.19v81.47h-4.19Zm26.43-15h4.34v122.36q0,3.46-1.23,4.91a6.67,6.67,0,0,1-3.68,2,37.49,37.49,0,0,1-7.3.73q-5,.14-14.23.14-.28-.72-.72-2a14,14,0,0,0-1-2.24q7.36.14,13,.14c3.76,0,6.21,0,7.37-.14a4.51,4.51,0,0,0,2.67-.87,3.42,3.42,0,0,0,.79-2.6Z"/><g class="cls-2"><rect class="cls-3" x="4864.06" y="1248.29" width="1248.29" height="565.67"/><rect class="cls-3" x="4298.39" y="-0.42" width="565.67" height="1248.29"/><rect class="cls-3" x="4298.39" y="1813.54" width="565.67" height="1248.29"/><rect class="cls-3" x="-261.45" y="1247.87" width="4559.83" height="565.67"/></g></svg>